<svg width="19" height="19" viewBox="0 0 19 19" fill="none" xmlns="http://www.w3.org/2000/svg">
<path d="M9.53622 9.29914C8.27373 9.29914 7.22484 8.8815 6.38956 8.04623C5.55429 7.21094 5.13665 6.16206 5.13665 4.89957C5.13665 3.63708 5.55429 2.5882 6.38956 1.75293C7.22484 0.917645 8.27373 0.5 9.53622 0.5C10.7987 0.5 11.8476 0.917645 12.6829 1.75293C13.5182 2.5882 13.9358 3.63708 13.9358 4.89957C13.9358 6.16206 13.5182 7.21094 12.6829 8.04623C11.8476 8.8815 10.7987 9.29914 9.53622 9.29914ZM16.8051 18.5H2.26733C1.7413 18.5 1.29098 18.3127 0.916385 17.9381C0.54179 17.5635 0.354492 17.1132 0.354492 16.5872V15.6307C0.354492 14.9293 0.531432 14.3156 0.885311 13.7896C1.23919 13.2636 1.69987 12.8635 2.26736 12.5893C3.51709 12.009 4.73813 11.5739 5.93047 11.2837C7.12283 10.9936 8.32475 10.8486 9.53622 10.8486C10.7477 10.8486 11.9464 10.9968 13.1324 11.2933C14.3184 11.5898 15.5357 12.023 16.7844 12.593C17.3685 12.8688 17.8368 13.2687 18.1893 13.7926C18.5417 14.3167 18.7179 14.9293 18.7179 15.6307V16.5872C18.7179 17.1132 18.5306 17.5635 18.1561 17.9381C17.7815 18.3127 17.3311 18.5 16.8051 18.5ZM2.26733 16.5872H16.8051V15.6307C16.8051 15.3565 16.727 15.0983 16.5708 14.856C16.4145 14.6137 16.2185 14.432 15.9826 14.3108C14.8221 13.7433 13.7286 13.3432 12.702 13.1105C11.6754 12.8778 10.6202 12.7614 9.53622 12.7614C8.45226 12.7614 7.39062 12.8778 6.35131 13.1105C5.31199 13.3432 4.21848 13.7433 3.07076 14.3108C2.83483 14.432 2.64195 14.6137 2.49211 14.856C2.34226 15.0983 2.26733 15.3565 2.26733 15.6307V16.5872ZM9.53622 7.38629C10.244 7.38629 10.8354 7.14879 11.3104 6.67376C11.7854 6.19873 12.0229 5.60733 12.0229 4.89957C12.0229 4.19181 11.7854 3.60042 11.3104 3.1254C10.8354 2.65036 10.244 2.41284 9.53622 2.41284C8.82846 2.41284 8.23707 2.65036 7.76205 3.1254C7.28701 3.60042 7.04949 4.19181 7.04949 4.89957C7.04949 5.60733 7.28701 6.19873 7.76205 6.67376C8.23707 7.14879 8.82846 7.38629 9.53622 7.38629Z" fill="black"/>
</svg>
