<svg width="17" height="19" viewBox="0 0 17 19" fill="none" xmlns="http://www.w3.org/2000/svg">
<path d="M14.9036 18.5H2.12933C1.7374 18.5 1.39748 18.3583 1.10958 18.075C0.821683 17.7917 0.677734 17.4572 0.677734 17.0714V6.07141C0.677734 5.68571 0.821683 5.35119 1.10958 5.06784C1.39748 4.78451 1.7374 4.64285 2.12933 4.64285H4.30677C4.30677 3.49524 4.70476 2.51786 5.50072 1.71071C6.29668 0.903571 7.27773 0.5 8.44387 0.5C9.61 0.5 10.6152 0.903929 11.4596 1.71179C12.3039 2.51964 12.7261 3.49666 12.7261 4.64285H14.9036C15.2955 4.64285 15.6354 4.78451 15.9233 5.06784C16.2112 5.35119 16.3552 5.68571 16.3552 6.07141V17.0714C16.3552 17.4572 16.2112 17.7917 15.9233 18.075C15.6354 18.3583 15.2955 18.5 14.9036 18.5ZM5.75837 4.64285H11.2745C11.2745 3.88095 11.0084 3.23809 10.4761 2.71428C9.94386 2.19046 9.29063 1.92856 8.51644 1.92856C7.74226 1.92856 7.08903 2.19046 6.55677 2.71428C6.0245 3.23809 5.75837 3.88095 5.75837 4.64285ZM14.9036 17.0714V6.07141H2.12933V17.0714H14.9036ZM8.51244 11.2143C9.58396 11.2143 10.5541 10.8524 11.4229 10.1286C12.2917 9.40475 12.7237 8.59284 12.7189 7.69284C12.7189 7.50713 12.6487 7.34522 12.5084 7.20712C12.3681 7.06904 12.1931 6.99999 11.9836 6.99999C11.8111 6.99999 11.657 7.05714 11.5214 7.17142C11.3859 7.28571 11.2963 7.44285 11.2527 7.64285C11.1027 8.27142 10.7689 8.78571 10.2511 9.18571C9.73338 9.58571 9.15515 9.78571 8.51644 9.78571C7.87773 9.78571 7.29829 9.58571 6.77812 9.18571C6.25797 8.78571 5.92531 8.27142 5.78015 7.64285C5.7366 7.43808 5.64708 7.27974 5.51161 7.16784C5.37611 7.05594 5.22127 6.99999 5.04707 6.99999C4.8487 6.99999 4.67814 7.06904 4.5354 7.20712C4.39265 7.34522 4.32128 7.50713 4.32128 7.69284C4.32128 8.5935 4.75193 9.40557 5.61323 10.1291C6.47451 10.8525 7.44092 11.2143 8.51244 11.2143Z" fill="black"/>
</svg>
