<svg width="19" height="19" viewBox="0 0 19 19" fill="none" xmlns="http://www.w3.org/2000/svg">
<path d="M14.1657 18.0216L10.3914 12.0204C9.89605 12.2765 9.35136 12.4413 8.75727 12.5148C8.1632 12.5882 7.55656 12.5544 6.93733 12.4133C5.43581 12.0713 4.28357 11.2614 3.48062 9.98366C2.67766 8.70595 2.44494 7.32631 2.78245 5.84474C3.11995 4.36317 3.92766 3.22054 5.20555 2.41684C6.48343 1.61314 7.86546 1.38057 9.35166 1.71913C10.8378 2.05769 11.9805 2.86538 12.7795 4.14222C13.5786 5.41907 13.8093 6.79896 13.4714 8.28192C13.3351 8.88054 13.1074 9.4324 12.7884 9.93748C12.4695 10.4426 12.0728 10.8838 11.5984 11.2613L15.4058 17.2773C15.5103 17.4365 15.5413 17.6097 15.4986 17.7969C15.456 17.9841 15.3445 18.1344 15.1641 18.2478C14.9988 18.3518 14.8159 18.381 14.6153 18.3353C14.4148 18.2896 14.2649 18.1851 14.1657 18.0216ZM7.2389 11.0255C8.33508 11.2753 9.35489 11.101 10.2983 10.5026C11.2418 9.90436 11.8381 9.05828 12.0873 7.96441C12.3365 6.87053 12.1654 5.84964 11.5742 4.90176C10.983 3.95387 10.1393 3.35507 9.04315 3.10536C7.93928 2.85389 6.91293 3.02669 5.96411 3.62375C5.01528 4.22081 4.41627 5.06628 4.16708 6.16017C3.91789 7.25404 4.0916 8.27553 4.6882 9.22464C5.2848 10.1738 6.13503 10.7741 7.2389 11.0255Z" fill="#E11C0A"/>
</svg>
