<svg width="17" height="19" viewBox="0 0 17 19" fill="none" xmlns="http://www.w3.org/2000/svg">
<g id="home">
<path id="home_2" d="M1.98837 16.7939H5.57134V10.481H11.3723V16.7939H14.9552V7.06871L8.4718 2.20614L1.98837 7.06871V16.7939ZM1.98837 18.5C1.51918 18.5 1.11752 18.3329 0.783403 17.9988C0.449285 17.6647 0.282227 17.2631 0.282227 16.7939V7.06871C0.282227 6.79857 0.34265 6.54265 0.463498 6.30093C0.584362 6.05924 0.75143 5.86019 0.9647 5.70378L7.44811 0.841224C7.60502 0.727474 7.76907 0.642166 7.94025 0.585299C8.11141 0.528433 8.28971 0.5 8.47516 0.5C8.6606 0.5 8.83814 0.528433 9.00778 0.585299C9.17743 0.642166 9.34 0.727474 9.4955 0.841224L15.9789 5.70378C16.1922 5.86019 16.3592 6.05924 16.4801 6.30093C16.601 6.54265 16.6614 6.79857 16.6614 7.06871V16.7939C16.6614 17.2631 16.4943 17.6647 16.1602 17.9988C15.8261 18.3329 15.4244 18.5 14.9552 18.5H9.66613V12.1872H7.27748V18.5H1.98837Z" fill="black"/>
</g>
</svg>
